<svg width="542" height="128" viewBox="0 0 542 128" fill="none" xmlns="http://www.w3.org/2000/svg">
<g clip-path="url(#clip0_312_2)">
<path d="M91.5826 0H13.2682C5.93817 0 0 5.93817 0 13.2682V45.2579C3.86181 28.5158 52.3198 8.55645 91.5826 0Z" fill="#FF4919"/>
<path d="M52.3883 64.0365C6.85657 64.453 2.02503 57.5108 0 49.405V107.087C56.1018 90.1737 87.6523 63.7114 52.3883 64.0365Z" fill="#FF4919"/>
<path d="M66.3746 47.7621C120.172 40.6945 124.108 56.2444 127.085 67.6588V13.2739C127.085 12.9545 127.074 12.635 127.051 12.3156C126.504 4.68323 118.968 -0.410717 111.501 1.25494C61.4575 12.4183 -3.51451 56.9404 66.3746 47.7621Z" fill="#FF4919"/>
<path d="M70.0605 127.092H113.824C121.154 127.092 127.092 121.154 127.092 113.824V75.5591C123.242 92.6321 96.7795 113.721 70.0605 127.092Z" fill="#FF4919"/>
<path d="M161.717 75.8502H176.211C176.474 82.644 182.087 86.4317 190.706 86.4317C199.588 86.4317 204.813 83.4255 204.813 78.594C204.813 74.8063 202.725 72.0626 195.538 71.2811L184.043 69.7124C172.418 68.2749 164.061 62.2683 164.061 50.3805C164.061 39.2799 173.724 29.8735 190.312 29.8735C206.638 29.8735 218.001 38.0991 217.87 52.2059H204.031C203.769 46.3304 198.549 42.2804 190.187 42.2804C182.087 42.2804 178.043 45.8057 178.043 49.8557C178.043 53.9058 181.437 55.8623 186.268 56.5183L198.937 58.2182C212.651 59.9181 219.182 67.4934 219.182 78.2004C219.182 90.3449 208.732 99.4889 190.712 99.4889C172.686 99.4889 162.11 90.4761 161.717 75.8502Z" fill="#FF4919"/>
<path d="M385.142 99.4888C364.504 99.4888 350.141 84.7317 350.141 64.6184C350.141 44.6362 364.51 29.8792 385.142 29.8792C403.037 29.8792 416.225 40.8484 418.575 57.8302H403.556C401.856 48.2983 394.149 43.3356 385.142 43.3356C373.517 43.3356 364.635 51.9548 364.635 64.6241C364.635 77.4244 373.648 85.9124 385.142 85.9124C393.761 85.9124 400.812 81.2121 403.162 72.4618H418.313C415.443 88.9072 402.643 99.4888 385.142 99.4888Z" fill="#FF4919"/>
<path d="M252.112 29.8735C237.355 29.8735 226.385 38.4927 224.423 52.4683H237.743C238.655 47.3743 243.099 42.2804 251.981 42.2804C262.3 42.2804 266.869 48.943 266.869 55.4688C266.869 56.3358 266.167 57.0374 265.3 57.0374H246.624C230.43 57.0374 222.461 66.7005 222.461 77.6699C222.461 90.9894 233.43 99.4831 246.624 99.4831C258.643 99.4831 265.169 94.5204 267.913 89.0329V90.7327V98.3081H276.007H280.576V85.5076V71.9085V55.4688C280.582 42.8052 271.307 29.8735 252.112 29.8735ZM266.869 71.9314C266.869 79.6379 260.862 87.082 248.843 87.082C241.662 87.082 236.824 83.4255 236.824 77.5501C236.824 72.0626 241.394 68.9309 246.619 68.9309H266.863V71.9314H266.869Z" fill="#FF4919"/>
<path d="M450.436 29.8735C435.679 29.8735 424.71 38.4927 422.747 52.4683H436.067C436.98 47.3743 441.423 42.2804 450.305 42.2804C460.624 42.2804 465.193 48.943 465.193 55.4688C465.193 56.3358 464.492 57.0374 463.625 57.0374H444.949C428.754 57.0374 420.785 66.7005 420.785 77.6699C420.785 90.9894 431.755 99.4831 444.949 99.4831C456.968 99.4831 463.493 94.5204 466.237 89.0329V90.7327V98.3081H474.331H478.901V85.5076V71.9085V55.4688C478.906 42.8052 469.637 29.8735 450.436 29.8735ZM465.199 71.9314C465.199 79.6379 459.192 87.082 447.173 87.082C439.992 87.082 435.154 83.4255 435.154 77.5501C435.154 72.0626 439.723 68.9309 444.949 68.9309H465.193V71.9314H465.199Z" fill="#FF4919"/>
<path d="M343.679 98.0626H330.382V57.7959C330.382 49.5475 323.674 42.8392 315.425 42.8392C307.177 42.8392 300.469 49.5475 300.469 57.7959V98.0626H287.172V57.7959C287.172 42.2174 299.847 29.5425 315.425 29.5425C331.004 29.5425 343.679 42.2174 343.679 57.7959V98.0626Z" fill="#FF4919"/>
<path d="M542.001 98.0626H528.704V57.7959C528.704 49.5475 521.996 42.8392 513.748 42.8392C505.499 42.8392 498.791 49.5475 498.791 57.7959V98.0626H485.494V57.7959C485.494 42.2174 498.169 29.5425 513.748 29.5425C529.326 29.5425 542.001 42.2174 542.001 57.7959V98.0626Z" fill="#FF4919"/>
<path d="M309.477 79.5579C311.619 79.5579 313.355 77.8213 313.355 75.679C313.355 73.5367 311.619 71.8 309.477 71.8C307.334 71.8 305.598 73.5367 305.598 75.679C305.598 77.8213 307.334 79.5579 309.477 79.5579Z" fill="#FF4919"/>
</g>
<defs>
<clipPath id="clip0_312_2">
<rect width="542" height="128" fill="white"/>
</clipPath>
</defs>
</svg>
